<svg xmlns="http://www.w3.org/2000/svg" version="1.1" xmlns:xlink="http://www.w3.org/1999/xlink" xmlns:svgjs="http://svgjs.com/svgjs" width="1440" height="560" preserveAspectRatio="none" viewBox="0 0 1440 560"><g mask="url(&quot;#SvgjsMask1023&quot;)" fill="none"><rect width="1440" height="560" x="0" y="0" fill="rgba(187, 152, 223, 1)"></rect><path d="M1178.0885362694132 341.89772018207157L1119.9520152460705 358.568099329585 1174.025844479012 437.4376912908423z" fill="rgba(118, 28, 142, 0.4)" class="triangle-float3"></path><path d="M619.1322810939059 325.9145443721537L466.0936945951256 278.9664247763804 495.1874559648188 415.84181051422013z" fill="rgba(118, 28, 142, 0.4)" class="triangle-float2"></path><path d="M1218.8253321458876 460.7181197774701L1233.7805495633459 633.5540060078066 1359.5043420243992 548.7522372230965z" fill="rgba(118, 28, 142, 0.4)" class="triangle-float2"></path><path d="M1172.834524499208 121.39044870166133L1072.6619023574308 53.823161912594244 1105.267237710141 221.56307084343874z" fill="rgba(118, 28, 142, 0.4)" class="triangle-float2"></path><path d="M204.84827583778386-32.82198258855283L224.16948231849958 104.65554500426487 342.3258034306016-52.143189069268544z" fill="rgba(118, 28, 142, 0.4)" class="triangle-float1"></path><path d="M598.827,146.386C625.483,146.323,650.996,133.304,663.977,110.023C676.654,87.287,673.476,59.35,659.658,37.288C646.686,16.577,623.246,5.055,598.827,6.008C575.97,6.9,557.884,22.376,545.696,41.733C532.421,62.817,521.861,88.117,533.14,110.333C545.259,134.203,572.057,146.449,598.827,146.386" fill="rgba(118, 28, 142, 0.4)" class="triangle-float3"></path><path d="M468.32 16.31 a183.67 183.67 0 1 0 367.34 0 a183.67 183.67 0 1 0 -367.34 0z" fill="rgba(118, 28, 142, 0.4)" class="triangle-float2"></path><path d="M812.5083759417915 509.986648675476L961.9851843526353 443.4352857826001 895.4338214597594 293.95847737175626 745.9570130489157 360.5098402646322z" fill="rgba(118, 28, 142, 0.4)" class="triangle-float2"></path><path d="M132.11 231.77 a148.87 148.87 0 1 0 297.74 0 a148.87 148.87 0 1 0 -297.74 0z" fill="rgba(118, 28, 142, 0.4)" class="triangle-float1"></path><path d="M1441.3327095386978 298.74180872409033L1322.2304770012354 388.49177842898 1411.980446706125 507.5940109664425 1531.0826792435876 417.84404126155283z" fill="rgba(118, 28, 142, 0.4)" class="triangle-float3"></path><path d="M584.4349135473622 358.98869295767713L533.6415624882354 404.7232316747547 627.6400460934152 458.0459889049058z" fill="rgba(118, 28, 142, 0.4)" class="triangle-float2"></path><path d="M944.17 51.77 a129.05 129.05 0 1 0 258.1 0 a129.05 129.05 0 1 0 -258.1 0z" fill="rgba(118, 28, 142, 0.4)" class="triangle-float2"></path><path d="M-23.12783391979709 497.92696682577696L47.941676040850325 526.6409127071314 55.477839882558285 405.67967482548306z" fill="rgba(118, 28, 142, 0.4)" class="triangle-float2"></path><path d="M768.092,366.827C799.557,368.571,836.209,366.382,851.792,338.991C867.285,311.759,848.812,280.234,832.613,253.416C817.19,227.883,797.822,202.856,768.092,200.424C734.27,197.657,698.171,211.139,682.265,241.115C667.03,269.825,680.73,303.682,699.056,330.525C714.768,353.539,740.269,365.285,768.092,366.827" fill="rgba(118, 28, 142, 0.4)" class="triangle-float1"></path><path d="M532.9036586511634 429.2769314439313L474.79989580893397 394.36466853471876 451.48338286622993 498.97644425266907z" fill="rgba(118, 28, 142, 0.4)" class="triangle-float2"></path><path d="M332.571,598.709C373.308,597.778,406.672,570.32,427.289,535.173C448.199,499.527,459.326,454.995,437.433,419.945C416.424,386.309,372.207,382.218,332.571,383.531C295.831,384.748,259.261,395.785,239.085,426.513C216.824,460.417,210.694,504.036,230.046,539.681C250.212,576.826,290.316,599.675,332.571,598.709" fill="rgba(118, 28, 142, 0.4)" class="triangle-float3"></path></g><defs><mask id="SvgjsMask1023"><rect width="1440" height="560" fill="#ffffff"></rect></mask><style>
            @keyframes float1 {
                0%{transform: translate(0, 0)}
                50%{transform: translate(-10px, 0)}
                100%{transform: translate(0, 0)}
            }

            .triangle-float1 {
                animation: float1 5s infinite;
            }

            @keyframes float2 {
                0%{transform: translate(0, 0)}
                50%{transform: translate(-5px, -5px)}
                100%{transform: translate(0, 0)}
            }

            .triangle-float2 {
                animation: float2 4s infinite;
            }

            @keyframes float3 {
                0%{transform: translate(0, 0)}
                50%{transform: translate(0, -10px)}
                100%{transform: translate(0, 0)}
            }

            .triangle-float3 {
                animation: float3 6s infinite;
            }
        </style></defs></svg>